<svg width="24" height="24" viewBox="0 0 24 24" fill="none" xmlns="http://www.w3.org/2000/svg">
<g clip-path="url(#clip0_119_98)">
<path d="M6.66667 6.66668C6.84348 6.66668 7.01305 6.59644 7.13807 6.47141C7.2631 6.34639 7.33333 6.17682 7.33333 6.00001V2.00001C7.33333 1.8232 7.2631 1.65363 7.13807 1.52861C7.01305 1.40358 6.84348 1.33334 6.66667 1.33334C6.48986 1.33334 6.32029 1.40358 6.19526 1.52861C6.07024 1.65363 6 1.8232 6 2.00001V6.00001C6 6.17682 6.07024 6.34639 6.19526 6.47141C6.32029 6.59644 6.48986 6.66668 6.66667 6.66668Z" fill="black" fill-opacity="0.4"/>
<path d="M20 8.99999C18.6739 8.99999 17.4021 8.4732 16.4644 7.53552C15.5268 6.59784 15 5.32607 15 3.99999H8.1333V5.99999C8.1333 6.38897 7.97878 6.76202 7.70372 7.03708C7.42867 7.31213 7.05562 7.46665 6.66664 7.46665C6.27765 7.46665 5.9046 7.31213 5.62955 7.03708C5.35449 6.76202 5.19997 6.38897 5.19997 5.99999V3.99999H2.5333C2.37465 3.99818 2.21725 4.02821 2.0704 4.08829C1.92356 4.14838 1.79026 4.2373 1.67838 4.3498C1.5665 4.4623 1.47831 4.5961 1.41904 4.74327C1.35977 4.89045 1.33062 5.04801 1.3333 5.20665V20.1267C1.33065 20.2825 1.35873 20.4373 1.41593 20.5823C1.47313 20.7273 1.55834 20.8596 1.66668 20.9717C1.77501 21.0837 1.90437 21.1733 2.04735 21.2354C2.19032 21.2974 2.34413 21.3307 2.49997 21.3333H21.5C21.6558 21.3307 21.8096 21.2974 21.9526 21.2354C22.0956 21.1733 22.2249 21.0837 22.3333 20.9717C22.4416 20.8596 22.5268 20.7273 22.584 20.5823C22.6412 20.4373 22.6693 20.2825 22.6666 20.1267V8.22665C21.8693 8.7327 20.9443 9.00096 20 8.99999V8.99999ZM6.66664 17.3333H5.3333V16H6.66664V17.3333ZM6.66664 14H5.3333V12.6667H6.66664V14ZM6.66664 10.6667H5.3333V9.33332H6.66664V10.6667ZM10.6666 17.3333H9.3333V16H10.6666V17.3333ZM10.6666 14H9.3333V12.6667H10.6666V14ZM10.6666 10.6667H9.3333V9.33332H10.6666V10.6667ZM14.6666 17.3333H13.3333V16H14.6666V17.3333ZM14.6666 14H13.3333V12.6667H14.6666V14ZM14.6666 10.6667H13.3333V9.33332H14.6666V10.6667ZM18.6666 17.3333H17.3333V16H18.6666V17.3333ZM18.6666 14H17.3333V12.6667H18.6666V14ZM18.6666 10.6667H17.3333V9.33332H18.6666V10.6667Z" fill="black" fill-opacity="0.4"/>
<path d="M20 7.33332C21.8409 7.33332 23.3333 5.84094 23.3333 3.99999C23.3333 2.15904 21.8409 0.666656 20 0.666656C18.159 0.666656 16.6666 2.15904 16.6666 3.99999C16.6666 5.84094 18.159 7.33332 20 7.33332Z" fill="black" fill-opacity="0.4"/>
</g>
<defs>
<clipPath id="clip0_119_98">
<rect width="24" height="24" fill="white"/>
</clipPath>
</defs>
</svg>
