<svg width="32" height="32" viewBox="0 0 32 32" fill="none" xmlns="http://www.w3.org/2000/svg">
<path d="M3.96961 9.27869C4.98839 7.29058 6.55129 5.6193 8.4836 4.45165C10.4159 3.284 12.6415 2.66599 14.9116 2.66669C18.2116 2.66669 20.9839 3.85469 23.1035 5.79269L19.5929 9.23429C18.3231 8.04509 16.7092 7.43909 14.9116 7.43909C11.7219 7.43909 9.02185 9.55109 8.06063 12.3867C7.81573 13.1067 7.67614 13.8747 7.67614 14.6667C7.67614 15.4587 7.81573 16.2267 8.06063 16.9467C9.02308 19.7835 11.7219 21.8943 14.9116 21.8943C16.5586 21.8943 17.9606 21.4683 19.0578 20.7483C19.6938 20.3379 20.2383 19.8054 20.6584 19.1829C21.0785 18.5604 21.3654 17.8609 21.5019 17.1267H14.9116V12.4851H26.4439C26.5884 13.2699 26.6667 14.0883 26.6667 14.9391C26.6667 18.5943 25.3321 21.6711 23.0153 23.7591C20.99 25.5927 18.2178 26.6667 14.9116 26.6667C13.3034 26.6673 11.7109 26.3574 10.225 25.7545C8.73906 25.1517 7.38893 24.2678 6.25176 23.1534C5.11459 22.0389 4.21266 20.7158 3.59753 19.2596C2.98239 17.8034 2.66611 16.2427 2.66675 14.6667C2.66675 12.7299 3.1394 10.8987 3.96961 9.27869Z" fill="#F5F5F5"/>
</svg>
