<svg width="28" height="28" viewBox="0 0 28 28" fill="none" xmlns="http://www.w3.org/2000/svg">
<path d="M5.25 24.992H17.104C18.512 24.992 19.532 24.517 19.851 23.035L20.511 19.961H23.375C24.1043 19.961 24.8038 19.6713 25.3195 19.1555C25.8353 18.6398 26.125 17.9403 26.125 17.211V10.506C26.125 8.828 24.761 7.933 23.446 7.988H16.406V5.75C16.406 5.02065 16.1163 4.32118 15.6005 3.80546C15.0848 3.28973 14.3853 3 13.656 3H4.75C4.02065 3 3.32118 3.28973 2.80546 3.80546C2.28973 4.32118 2 5.02065 2 5.75V21.742C2 22.604 2.34241 23.4306 2.9519 24.0401C3.5614 24.6496 4.38805 24.992 5.25 24.992ZM16.406 9.488H21.27C21.21 9.638 21.159 9.801 21.121 9.975L18.384 22.721C18.132 23.893 16.406 23.71 16.406 22.511V9.488ZM6.778 9.5C6.57909 9.5 6.38832 9.42098 6.24767 9.28033C6.10702 9.13968 6.028 8.94891 6.028 8.75C6.028 8.55109 6.10702 8.36032 6.24767 8.21967C6.38832 8.07902 6.57909 8 6.778 8C6.97691 8 7.16768 8.07902 7.30833 8.21967C7.44898 8.36032 7.528 8.55109 7.528 8.75C7.528 8.94891 7.44898 9.13968 7.30833 9.28033C7.16768 9.42098 6.97691 9.5 6.778 9.5ZM6.781 18.516H11.781C11.9799 18.516 12.1707 18.595 12.3113 18.7357C12.452 18.8763 12.531 19.0671 12.531 19.266C12.531 19.4649 12.452 19.6557 12.3113 19.7963C12.1707 19.937 11.9799 20.016 11.781 20.016H6.781C6.58209 20.016 6.39132 19.937 6.25067 19.7963C6.11002 19.6557 6.031 19.4649 6.031 19.266C6.031 19.0671 6.11002 18.8763 6.25067 18.7357C6.39132 18.595 6.58209 18.516 6.781 18.516V18.516ZM6.781 13.25H11.781C11.9799 13.25 12.1707 13.329 12.3113 13.4697C12.452 13.6103 12.531 13.8011 12.531 14C12.531 14.1989 12.452 14.3897 12.3113 14.5303C12.1707 14.671 11.9799 14.75 11.781 14.75H6.781C6.58209 14.75 6.39132 14.671 6.25067 14.5303C6.11002 14.3897 6.031 14.1989 6.031 14C6.031 13.8011 6.11002 13.6103 6.25067 13.4697C6.39132 13.329 6.58209 13.25 6.781 13.25V13.25Z" fill="black"/>
</svg>
