<svg width="16" height="16" viewBox="0 0 16 16" fill="none" xmlns="http://www.w3.org/2000/svg">
<path d="M6.13137 0.000632361C4.51247 0.024542 2.96664 0.678435 1.82208 1.82348C0.65541 2.99029 0 4.57267 0 6.22261C0 7.87255 0.65541 9.45493 1.82208 10.6217C2.88034 11.678 4.28359 12.3179 5.77507 12.4244C7.26654 12.5309 8.74649 12.0968 9.94409 11.2016L14.743 16L16 14.7431L11.1994 9.94295C12.0944 8.7458 12.5286 7.26649 12.4224 5.77556C12.3163 4.28463 11.6769 2.88174 10.6212 1.82348C10.0328 1.23482 9.33225 0.770191 8.56104 0.457086C7.78983 0.143981 6.96364 -0.0112327 6.13137 0.000632361V0.000632361ZM6.28589 1.77834C7.44233 1.79535 8.54659 2.26243 9.36419 3.08037C10.1975 3.91381 10.6657 5.04408 10.6657 6.22261C10.6657 7.40114 10.1975 8.53141 9.36419 9.36485C8.53068 10.1981 7.40029 10.6662 6.22165 10.6662C5.043 10.6662 3.91262 10.1981 3.0791 9.36485C2.24576 8.53141 1.77761 7.40114 1.77761 6.22261C1.77761 5.04408 2.24576 3.91381 3.0791 3.08037C3.49937 2.65993 3.99972 2.32807 4.55054 2.10443C5.10136 1.88078 5.69145 1.7699 6.28589 1.77834V1.77834Z" fill="#0D62C6"/>
</svg>
