<svg width="24" height="24" viewBox="0 0 24 24" fill="none" xmlns="http://www.w3.org/2000/svg">
<path fill-rule="evenodd" clip-rule="evenodd" d="M4.5 3C4.10218 3 3.72064 3.15804 3.43934 3.43934C3.15804 3.72064 3 4.10218 3 4.5V19.5C3 19.8978 3.15804 20.2794 3.43934 20.5607C3.72064 20.842 4.10218 21 4.5 21H7V19.5C7 19.3674 7.05268 19.2402 7.14645 19.1464C7.24021 19.0527 7.36739 19 7.5 19H9.5C9.63261 19 9.75979 19.0527 9.85355 19.1464C9.94732 19.2402 10 19.3674 10 19.5V21H13.5V19.5C13.5 19.3674 13.5527 19.2402 13.6464 19.1464C13.7402 19.0527 13.8674 19 14 19H16C16.1326 19 16.2598 19.0527 16.3536 19.1464C16.4473 19.2402 16.5 19.3674 16.5 19.5V21H19.5C19.8978 21 20.2794 20.842 20.5607 20.5607C20.842 20.2794 21 19.8978 21 19.5V4.5C21 4.10218 20.842 3.72064 20.5607 3.43934C20.2794 3.15804 19.8978 3 19.5 3H4.5ZM16.995 17.3175C17.2685 17.04 17.545 16.76 17.8 16.3425C17.864 16.2375 17.929 16.137 17.992 16.039C18.22 15.6865 18.422 15.374 18.459 15.054C18.507 14.6455 18.537 12.1955 18.405 11.8245C18.2725 11.454 17.51 11.246 17.2465 12.076C17.1165 12.4855 17.0755 13.012 17.0385 13.49C17 13.98 16.966 14.419 16.8435 14.626C16.602 15.035 15.8245 16.0525 15.8245 16.0525L16.4955 14.779C16.4955 14.779 16.5975 14.603 16.544 14.2685C16.49 13.9335 16.0855 13.4655 15.8955 13.8375C15.7055 14.209 15.373 14.5445 15.373 14.5445L14.199 15.959C14.199 15.959 13.8165 16.455 13.806 16.727C13.8025 16.818 13.746 17.02 13.681 17.2485C13.6085 17.5065 13.526 17.7985 13.5 18.0035V18.5H16.3865V18.0035C16.5805 17.737 16.787 17.5285 16.995 17.3175V17.3175ZM7.0885 18.0035C6.894 17.737 6.687 17.5285 6.4785 17.3175C6.2035 17.04 5.9265 16.76 5.6705 16.3425C5.6065 16.2375 5.541 16.137 5.478 16.039C5.2495 15.6865 5.047 15.374 5.009 15.054C4.961 14.6455 5.1105 12.1955 5.243 11.8245C5.376 11.454 6.141 11.246 6.4055 12.076C6.5355 12.4855 6.577 13.012 6.6145 13.49C6.6525 13.98 6.687 14.419 6.8095 14.626C7.052 15.035 7.832 16.0525 7.832 16.0525L7.159 14.779C7.159 14.779 7.0565 14.603 7.1105 14.2685C7.1645 13.9335 7.5705 13.4655 7.761 13.8375C7.952 14.209 8.2855 14.5445 8.2855 14.5445L9.463 15.959C9.463 15.959 9.847 16.455 9.8575 16.727C9.865 16.9205 9.951 17.617 10 18.0035V18.5H7.0885V18.0035V18.0035ZM9.8905 5.5C8.509 5.5 7.5 6.993 7.5 8.6035C7.5 12.1985 12 14.5 12 14.5C12 14.5 16.5 12.05 16.5 8.6035C16.5 6.9935 15.491 5.5 14.1095 5.5C13.1505 5.5 12.4395 6.17 12 7.12C11.561 6.17 10.8495 5.5 9.8905 5.5Z" fill="black"/>
</svg>
